<?xml version="1.0" encoding="UTF-8"?> <svg xmlns:svgjs="http://svgjs.com/svgjs" xmlns="http://www.w3.org/2000/svg" xmlns:xlink="http://www.w3.org/1999/xlink" version="1.1" id="Слой_1" x="0px" y="0px" viewBox="0 0 579 107" style="enable-background:new 0 0 579 107;" xml:space="preserve"> <style type="text/css"> .st0{fill:#FFFFFF;} </style> <g> <path d="M5.1,91.6c0.1-1.3,0.2-2.5,0.2-3.8c0.1-7.6,0.2-15.3,0.4-22.9C5.9,51.9,6.1,39,6.3,26c0.1-6.4,0.3-12.9,0.4-19.5 c0.4,0,0.8,0,1.2,0c6.8,0,13.5,0,20.3,0c0.9,0,1.3,0.3,1.4,1.2c3.3,17.7,6.7,35.3,10,53c0,0.1,0.1,0.3,0.3,0.4 c0.4-1.8,0.7-3.5,1.1-5.3c3.3-16.1,6.6-32.2,9.8-48.4c0.1-0.6,0.2-0.9,1-0.9c6.9,0,13.8,0,20.8,0c0.1,0,0.1,0,0.4,0.1 c0.5,31.7,1.1,63.5,1.6,95.3c-5,0-10,0-15,0c-0.6-20.7-1.2-41.5-1.7-62.2c-0.1,0-0.1,0-0.2,0c-3.6,20.7-7.2,41.4-10.9,62.2 c-4.5,0-8.8,0-13.4,0c-3.8-20.7-7.6-41.6-11.5-62.5c-0.1,0-0.1,0-0.2,0c-0.5,20.8-0.9,41.7-1.4,62.7c-5.2,0-10.2,0-15.2,0 C5.1,98.6,5.1,95.1,5.1,91.6z"></path> <path d="M573.9,71.2c-0.9,1.5-2.3,2.4-3.9,3C558.5,79,547.6,85,537,91.7c-2.1,1.4-4.3,1.7-6.8,1.6c-7.8-0.5-15.7-1.1-23.6-1.3 c-6.3-0.1-12.6,0.6-18.3,3.4c-2.5,1.2-4.7,3-7.1,4.5c-0.4,0.2-1,0.5-1.4,0.4c-5.4-1.4-10.6-3.5-15.2-6.9c-3.1-2.2-5.5-4.9-6.7-8.7 c3-1,5.9-2,8.8-3.1c7.9-2.9,15.5-6.3,22.6-11c1.2-0.8,2.5-1.6,3.6-2.6c3.7-3.3,7.9-3.7,12.5-2.8c4.5,0.9,8.9,2.1,13.5,2.8 c4.2,0.6,8.5,0.7,12.8,1.2c2.1,0.2,4.1,0.6,6.1,1.2c1.7,0.5,2.8,1.7,3,3.5c0.3,2-0.2,3.7-1.9,5c-1.3,1-2.8,1.4-4.4,1.3 c-4.7-0.2-9.4-0.4-14.1-0.4c-2.4,0-4.8,0.6-7.2,0.9c-0.2,0-0.4,0.2-1,0.4c3.2,0.4,6.1,0.8,9,1.2c4.4,0.5,8.9,1.1,13.4,0.6 c2.3-0.2,4.6-0.7,6.4-2.3c2.6-2.3,3.2-5.2,2.1-8.6c2.2-0.6,4.3-1.3,6.5-1.9c4.7-1.4,9.4-2.8,14.2-4c1.8-0.4,3.7-0.4,5.6-0.3 c2.2,0.1,3.8,1.3,4.6,3.4C573.9,69.9,573.9,70.6,573.9,71.2z"></path> <path d="M516.5,4.9c1.9,0.3,3.8,0.6,5.7,0.9c0.2,0,0.4,0.1,0.7,0.1c0.2,1.1,0.4,2.2,0.5,3.3c0.1,1.1,0.6,1.8,1.5,2.5 c1.3,1,2.4,1.2,3.9,0.5c1.1-0.6,2.5-1.3,3.4-1.1c0.9,0.3,1.5,1.8,2.1,2.7c0.8,1.1,2,2.2,2,3.3s-1.2,2.3-2,3.3 c-1.2,1.5-0.3,3-0.2,4.5c0,0.2,0.5,0.4,0.7,0.5c1.3,0.6,2.6,1.2,3.9,1.8c0.6,0.2,0.8,0.5,0.7,1.2c-0.4,2-0.6,4-1,6 c-0.1,0.3-0.5,0.7-0.8,0.8c-1.5,0.4-3,0.6-4.4,1c-0.4,0.1-0.8,0.4-1.1,0.8c-1.3,1.6-1.2,3.3-0.4,5.2c0.9,2.3,0.8,2.4-1.2,3.7 c-1.2,0.8-2.3,2.1-3.5,2.1c-1.2,0.1-2.5-1-3.7-1.8c-1.6-1.1-3-0.2-4.4,0.1c-0.2,0-0.4,0.5-0.5,0.7c-0.5,1.1-1,2.3-1.6,3.4 c-0.2,0.3-0.7,0.6-1.1,0.6c-2-0.2-4-0.5-5.9-0.9c-0.3-0.1-0.6-0.5-0.7-0.8c-0.2-0.6-0.3-1.3-0.2-1.9c0.3-2.3-0.9-3.7-2.6-4.8 c-0.3-0.2-0.9-0.3-1.2-0.2c-1.8,0.7-3.6,1.4-5.6,2.2c-1.2-1.9-2.5-3.9-3.8-6c0.9-1.2,1.9-2.5,2.8-3.8c0.1-0.2,0.4-0.3,0.5-0.5 c0.4-0.9-1.3-4.7-2.2-5c-1.2-0.4-2.4-0.8-3.7-1.2c0.3-2.5,0.5-4.9,0.8-7.5c1.4-0.2,2.8-0.6,4.2-0.7c0.8-0.1,1.3-0.5,1.8-1.2 c1.4-1.7,1.5-3.5,0.6-5.5c-1-2.3-0.8-2.4,1.3-3.5c1.2-0.6,2.5-1.8,3.7-1.7c1.2,0.1,2.3,1.4,3.4,2.1c1.3,0.9,4.1,0.2,4.8-1.2 c0.7-1.3,1.3-2.6,1.9-4C515.9,4.9,516.2,4.9,516.5,4.9z M526.9,28c0-5.6-4.7-10-10.6-10c-5.8,0-10.5,4.5-10.5,10.1 c0,5.5,4.8,10,10.6,10C522.2,38,526.9,33.5,526.9,28z"></path> <path d="M257.4,6.6c19,0,38,0,57,0c0,31.8,0,63.6,0,95.4c-6.9,0-13.8,0-20.7,0c0-26.8,0-53.5,0-80.3c-5.2,0-10.3,0-15.6,0 c0,26.7,0,53.4,0,80.2c-7,0-13.8,0-20.7,0C257.4,70.2,257.4,38.5,257.4,6.6z"></path> <path d="M393.9,6.6c7,0,14,0,21,0c0,12.5,0,25,0,37.5c1.9,0.5,2,0.4,2.6-1.2c4.3-11.7,8.7-23.4,13-35.2c0.3-0.9,0.7-1.2,1.7-1.2 c6.2,0.1,12.3,0,18.5,0c0.4,0,0.7,0,1.3,0c-0.1,0.5-0.2,0.8-0.4,1.2c-5.5,14.2-11.1,28.4-16.6,42.6c-0.2,0.6-0.2,1.4,0,2 c5.7,16.1,11.5,32.3,17.2,48.4c0.1,0.4,0.2,0.7,0.4,1.2c-0.4,0-0.7,0.1-1,0.1c-6.5,0-13,0-19.6,0c-0.9,0-1.2-0.3-1.5-1.1 c-4.3-13-8.7-26-13-39c-0.6-1.7-0.6-1.7-2.5-1.5c0,13.8,0,27.6,0,41.5c-7.1,0-14.1,0-21.1,0C393.9,70.2,393.9,38.5,393.9,6.6z"></path> <path d="M383.9,102.1c-6.6,0-12.9,0-19.5,0c-1.1-6.6-2.1-13.3-3.2-20c-0.3,0-0.7-0.1-1-0.1c-4,0-7.9,0-11.9,0 c-0.9,0-1.1,0.2-1.3,1.1c-1,6.3-2.1,12.6-3.1,19c-6.6,0-13.2,0-19.9,0c0.3-1.6,0.5-3.1,0.8-4.7c5-26.2,9.9-52.5,14.9-78.7 c0.7-3.7,1.4-7.4,2.1-11.1c0.1-0.7,0.3-1,1-1c7.6,0,15.1,0,22.7,0c0.2,0,0.3,0,0.6,0.1C372,38.4,378,70.2,383.9,102.1z M359.2,69.2 c-1.6-12.1-3.3-24.1-4.9-36.1c-0.1,0-0.1,0-0.2,0c-1.6,12-3.3,24.1-4.9,36.2C352.5,69.2,355.7,69.2,359.2,69.2z"></path> <path d="M205.7,6.6c8.1,0,16,0,24.1,0c5.9,31.8,11.8,63.5,17.8,95.4c-0.5,0-0.9,0.1-1.2,0.1c-5.7,0-11.4,0-17.2,0 c-0.8,0-1.2-0.2-1.3-1.1c-0.9-6-1.9-11.9-2.8-17.9c-0.1-0.4-0.2-0.8-0.2-1.2c-4.7,0-9.2,0-13.9,0c-1.1,6.7-2.2,13.3-3.3,20 c-6.7,0-13.2,0-20,0C193.7,70.2,199.7,38.5,205.7,6.6z M218,33.2c-0.1,0-0.2,0-0.2,0c-1.6,12-3.3,24-4.9,36c3.4,0,6.7,0,10,0 C221.3,57.1,219.7,45.1,218,33.2z"></path> <path d="M88.4,6.6c14.3,0,28.5,0,42.8,0c0,4.8,0,9.5,0,14.3c-7.2,0-14.4,0-21.7,0c0,7.9,0,15.7,0,23.5c5.5,0,10.9,0,16.5,0 c0,5,0,9.8,0,14.7c-5.4,0-10.9,0-16.4,0c0,9.6,0,19,0,28.5c7.3,0,14.5,0,21.9,0c0,4.8,0,9.5,0,14.3c-14.3,0-28.7,0-43.1,0 C88.4,70.2,88.4,38.5,88.4,6.6z"></path> <path d="M162.6,102c-7.1,0-14,0-21.1,0c0-31.8,0-63.5,0-95.4c14.6,0,29.3,0,44,0c0,5.1,0,10.3,0,15.6c-7.6,0-15.2,0-23,0 C162.6,48.9,162.6,75.5,162.6,102z"></path> <path class="st0" d="M526.9,28c0,5.5-4.7,10-10.4,10c-5.8,0-10.6-4.4-10.6-10s4.7-10.1,10.5-10.1C522.2,18,526.9,22.5,526.9,28z"></path> <path class="st0" d="M359.2,69.2c-3.4,0-6.6,0-10,0c1.6-12.1,3.3-24.1,4.9-36.2c0.1,0,0.1,0,0.2,0 C355.9,45.1,357.5,57.1,359.2,69.2z"></path> <path class="st0" d="M218,33.2c1.6,12,3.3,24,4.9,36c-3.3,0-6.6,0-10,0c1.6-12,3.3-24,4.9-36C217.9,33.2,218,33.2,218,33.2z"></path> </g> </svg> 